<mxfile host="app.diagrams.net" modified="2023-05-24T21:33:46.636Z" agent="Mozilla/5.0 (Windows NT 10.0; Win64; x64) AppleWebKit/537.36 (KHTML, like Gecko) Chrome/112.0.0.0 YaBrowser/23.5.0.2204 Yowser/2.5 Safari/537.36" version="21.3.3" etag="KL4netnhGeQBCP-tHrh9" type="github">
  <diagram name="Страница 1" id="s07QVJBrdxi1nYjNhe77">
    <mxGraphModel>
      <root>
        <mxCell id="0" />
        <mxCell id="1" parent="0" />
      </root>
    </mxGraphModel>
  </diagram>
</mxfile>
